<svg width="43" height="29" viewBox="0 0 43 29" fill="none" xmlns="http://www.w3.org/2000/svg">
<path d="M39.7542 0H2.77917C1.2441 0 0 1.2441 0 2.77917V26.2208C0 27.7559 1.2441 29 2.77917 29H39.7542C41.2892 29 42.5333 27.7559 42.5333 26.2208V2.77917C42.5333 1.2441 41.2892 0 39.7542 0Z" fill="url(#paint0_linear_34_20)"/>
<path d="M14.5512 24.2692C19.9183 24.2692 24.2691 19.9183 24.2691 14.5513C24.2691 9.18423 19.9183 4.83337 14.5512 4.83337C9.18416 4.83337 4.83331 9.18423 4.83331 14.5513C4.83331 19.9183 9.18416 24.2692 14.5512 24.2692Z" fill="#CF1928"/>
<path d="M27.1179 24.2692C32.485 24.2692 36.8358 19.9183 36.8358 14.5513C36.8358 9.18423 32.485 4.83337 27.1179 4.83337C21.7509 4.83337 17.4 9.18423 17.4 14.5513C17.4 19.9183 21.7509 24.2692 27.1179 24.2692Z" fill="url(#paint1_linear_34_20)"/>
<path d="M17.4 14.5513C17.4 17.5209 18.736 20.1753 20.8346 21.9579C22.9342 20.1753 24.2692 17.5209 24.2692 14.5513C24.2692 11.5817 22.9332 8.92719 20.8346 7.14465C18.736 8.92719 17.4 11.5817 17.4 14.5513Z" fill="#D97218"/>
<defs>
<linearGradient id="paint0_linear_34_20" x1="17.7625" y1="1.9923" x2="25.8564" y2="30.8811" gradientUnits="userSpaceOnUse">
<stop stop-color="#00B3EE"/>
<stop offset="1" stop-color="#0082D8"/>
</linearGradient>
<linearGradient id="paint1_linear_34_20" x1="17.4" y1="14.5513" x2="36.8368" y2="14.5513" gradientUnits="userSpaceOnUse">
<stop stop-color="#FEDE00"/>
<stop offset="1" stop-color="#FFD000"/>
</linearGradient>
</defs>
</svg>
