<svg width="41" height="29" viewBox="0 0 41 29" fill="none" xmlns="http://www.w3.org/2000/svg">
<path d="M4.02778 0C1.80621 0 0 1.80621 0 4.02778V24.9722C0 27.1938 1.80621 29 4.02778 29H36.25C38.4716 29 40.2778 27.1938 40.2778 24.9722V4.02778C40.2778 1.80621 38.4716 0 36.25 0H4.02778ZM23.9149 9.99392C25.0131 9.99392 26.1554 10.447 26.1554 10.447L25.7526 12.4106C25.7526 12.4106 24.8841 11.8316 24.1163 11.8316C22.9332 11.8316 22.5052 12.2186 22.5052 12.7378C22.5052 13.7542 25.803 13.9336 25.803 16.2118C25.803 18.1061 23.4524 19.4089 21.75 19.4089C20.0476 19.4089 19.1571 18.9054 19.1571 18.9054L19.5851 16.9922C19.5851 16.9922 20.4756 17.5208 21.8507 17.5208C23.2227 17.5208 23.4115 16.9355 23.4115 16.6901C23.4115 15.2363 20.1389 15.6423 20.1389 12.8134C20.1389 11.2495 21.4165 9.99392 23.9149 9.99392ZM13.2665 10.1701H15.809L12.184 19.1319H9.56597L7.65278 11.8819C7.65278 11.8819 9.66352 12.9078 10.9002 15.6832C10.9537 16.0199 11.1016 16.5642 11.1016 16.5642L13.2665 10.1701ZM16.7405 10.1701H19.1571L17.7222 19.1319H15.3307L16.7405 10.1701ZM29.6545 10.1701H32.1467L33.9844 19.1319H31.8194L31.5677 17.8481H28.5972L28.1189 19.1319H25.7526L29.6545 10.1701ZM5.03472 10.1953H8.71007C9.64779 10.1953 9.99392 11.0764 9.99392 11.0764L10.7995 15.1545C9.71072 11.6428 5.03472 10.1953 5.03472 10.1953ZM30.5608 12.763L29.2517 16.1363H31.2153L30.5608 12.763Z" fill="white"/>
</svg>
